# xmcd
#
# Track frame offsets: 
#        150
#        13584
#        29349
#        52809
#        67845
#        84780
#        106341
#        118524
#        136350
#        155706
#        185466
#        200970
#        217896
#        230538
#        251550
#        271185
#        282891
#        299043
#        313395
#
# Disc length: 4465 seconds
#
# Revision: 0
# Processed by: cddbd v1.5.2PL0 Copyright (c) Steve Scherf et al.
# Submitted via: ExactAudioCopy v1.0b1
#
DISCID=16116f13
DTITLE=Various Artist - Goldenlane Country 
DYEAR=2016
DGENRE=Country
TTITLE0=Lorrie Morgan - I Went Crazy For Awhile
TTITLE1=Sammy Kershaw - Grillin' and Chillin'
TTITLE2=Mary Sarah - Go Rest High on That Mountain
TTITLE3=Little Texas - Young for a Long Time
TTITLE4=Oak Ridge Boys - Elvira
TTITLE5=Collin Raye - Love, Me (Live)
TTITLE6=Doug Kershaw - Shake Hands and Come Out Crying
TTITLE7=T.G. Sheppard - Why Me Lord
TTITLE8=Outlaws - There Goes Another Love Song (Live 1976)
TTITLE9=Outlaws - There Goes Another Love Song (Live 1976)
TTITLE10=Holly Dunn - Daddy's Hands (Re-Recorded)
TTITLE11=Crystal Gayle - Half the Way (Live)
TTITLE12=Lynn Anderson - How Can I Unlove You
TTITLE13=Tanya Tucker - My Arms Stay Open (Live)
TTITLE14=BlackHawk - I'm Not Strong Enough To Say No (Re-Recorded)
TTITLE15=Kenny Rogers and The First Edition - Me and Bobby McGee
TTITLE16=Joe Diffie - Pickup Man (Re-Recorded)
TTITLE17=B.J. Thomas - I'm So Lonesome (I Could Cry)
TTITLE18=Teddy Zig Zag Andreas - Friends in Low Places
EXTD=
EXTT0=
EXTT1=
EXTT2=
EXTT3=
EXTT4=
EXTT5=
EXTT6=
EXTT7=
EXTT8=
EXTT9=
EXTT10=
EXTT11=
EXTT12=
EXTT13=
EXTT14=
EXTT15=
EXTT16=
EXTT17=
EXTT18=
PLAYORDER=
